PathFileType  4	(X/Y/Z) C:\Users\hpl\Documents\MyRepositories\mocap-processing\Data\treadmill\running\
DataRate	CameraRate	NumFrames	NumMarkers	Units	OrigDataRate	OrigDataStartFrame	OrigNumFrames
  200.0		  200.0		    4		     46		 mm	  200.0	      1	    785
Frame#	Time	r_knee			r_shank_antsup			r_ankle			r_calc			r_5meta			r_toe			L_knee			L_shank_antsup			L_ankle			L_calc			L_5meta			L_toe			r_sh2			r_sh3			r_sh4			L_sh2			L_sh3			r_thigh1			r_thigh2			r_thigh3			r_thigh4			r_thigh5			L_thigh1			L_thigh2			L_thigh3			L_thigh4			r.ASIS			r.PSIS			L.ASIS			L.PSIS			C7			R_Shoulder			L_Shoulder			Sternum			R_humerus			R_elbow_med			R_elbow_lat			R_forearm			R_wrist_radius			R_wrist_ulna			L_humerus			L_elbow_med			L_elbow_lat			L_forearm			L_wrist_radius			L_wrist_ulna			
		X1	Y1	Z1	X2	Y2	Z2	X3	Y3	Z3	X4	Y4	Z4	X5	Y5	Z5	X6	Y6	Z6	X7	Y7	Z7	X8	Y8	Z8	X9	Y9	Z9	X10	Y10	Z10	X11	Y11	Z11	X12	Y12	Z12	X13	Y13	Z13	X14	Y14	Z14	X15	Y15	Z15	X16	Y16	Z16	X17	Y17	Z17	X18	Y18	Z18	X19	Y19	Z19	X20	Y20	Z20	X21	Y21	Z21	X22	Y22	Z22	X23	Y23	Z23	X24	Y24	Z24	X25	Y25	Z25	X26	Y26	Z26	X27	Y27	Z27	X28	Y28	Z28	X29	Y29	Z29	X30	Y30	Z30	X31	Y31	Z31	X32	Y32	Z32	X33	Y33	Z33	X34	Y34	Z34	X35	Y35	Z35	X36	Y36	Z36	X37	Y37	Z37	X38	Y38	Z38	X39	Y39	Z39	X40	Y40	Z40	X41	Y41	Z41	X42	Y42	Z42	X43	Y43	Z43	X44	Y44	Z44	X45	Y45	Z45	X46	Y46	Z46	

1	0.00000	657.062	548.313	-155.233	598.364	440.494	-149.606	361.193	208.116	-195.816	299.405	244.312	-268.615	361.709	64.183	-172.038	413.652	58.841	-229.379	1031.007	594.325	-478.782	997.576	473.074	-472.526	799.450	229.884	-404.928	742.270	233.361	-344.127	903.666	104.970	-430.889	950.624	111.701	-367.706	517.517	353.262	-160.274	542.520	488.365	-136.558	460.279	412.356	-165.086	923.616	524.254	-475.565	865.455	419.812	-449.874	828.445	717.773	-141.884	776.021	617.600	-162.518	726.021	604.212	-141.526	726.973	756.046	-104.759	680.200	651.826	-134.166	1012.118	834.043	-478.543	1076.284	710.562	-461.032	914.182	780.841	-520.098	979.312	660.805	-487.340	911.006	1002.748	-173.794	705.731	1080.492	-235.013	888.179	1029.027	-442.561	695.078	1080.019	-339.904	823.535	1566.307	-285.130	892.192	1524.456	-105.472	823.334	1550.264	-472.166	961.430	1451.020	-321.828	850.681	1306.697	-16.773	721.504	1201.288	-34.776	750.951	1232.313	48.863	911.691	1197.527	-21.224	1004.095	1170.050	-75.290	998.135	1126.354	-46.772	672.045	1370.270	-561.784	540.206	1309.182	-494.880	568.348	1344.431	-581.794	688.525	1230.563	-578.350	787.573	1194.475	-526.289	748.554	1141.083	-557.698
2	0.00500	649.511	555.150	-155.597	588.874	448.828	-148.834	351.750	215.856	-193.302	292.054	255.813	-265.582	344.806	71.405	-171.015	396.731	62.883	-228.115	1030.712	595.003	-479.422	1003.955	471.883	-472.931	822.388	215.089	-404.394	765.763	215.636	-343.112	934.068	96.658	-430.354	980.832	107.148	-368.032	507.768	361.683	-158.823	533.190	496.799	-136.901	450.749	420.907	-164.928	926.702	517.899	-476.062	875.630	410.037	-449.692	824.815	720.853	-142.718	770.311	620.791	-163.171	720.012	609.235	-142.926	724.278	761.046	-105.164	675.308	657.925	-134.826	1013.365	836.191	-480.405	1076.425	712.233	-462.493	914.827	782.657	-519.276	978.655	662.852	-486.919	912.916	1004.958	-174.542	707.757	1083.230	-235.303	889.671	1032.624	-442.931	696.802	1083.346	-340.044	823.388	1568.685	-285.665	892.681	1527.947	-106.866	822.215	1553.347	-471.696	961.098	1454.836	-323.161	852.734	1310.964	-16.998	722.308	1205.831	-33.299	753.237	1236.846	49.789	913.061	1203.952	-22.603	1005.025	1177.358	-78.145	1000.043	1133.848	-49.539	669.210	1375.878	-561.218	537.536	1315.381	-492.936	564.762	1350.854	-580.107	684.809	1237.114	-578.107	784.015	1200.510	-527.111	745.058	1147.474	-558.455
3	0.01000	642.905	561.524	-156.309	580.429	456.900	-148.997	342.696	224.189	-190.945	284.896	267.442	-262.532	329.061	79.651	-169.969	380.916	67.384	-226.701	1029.772	595.063	-479.731	1009.348	470.126	-473.535	845.951	201.153	-404.347	789.941	198.587	-342.672	964.665	89.471	-430.168	1011.498	104.310	-368.886	498.860	369.962	-157.871	525.112	505.257	-137.466	442.226	429.396	-164.401	929.223	511.172	-476.418	885.794	400.046	-449.583	821.679	724.167	-143.498	764.773	624.895	-164.621	714.586	614.018	-144.199	721.960	765.824	-105.960	670.839	663.923	-135.428	1014.079	837.637	-482.439	1076.170	712.943	-464.120	914.493	784.604	-518.786	977.274	664.326	-486.036	914.684	1007.025	-175.384	709.743	1086.153	-234.393	891.274	1036.022	-443.385	698.944	1086.323	-339.953	823.395	1571.144	-285.926	893.376	1531.241	-108.111	821.380	1556.256	-471.586	960.823	1458.411	-324.316	854.464	1315.091	-17.131	723.752	1210.002	-31.971	755.214	1241.124	50.657	914.133	1210.173	-23.875	1005.730	1184.182	-80.944	1001.529	1141.129	-52.873	666.594	1381.345	-560.714	535.077	1321.052	-491.128	561.716	1357.149	-578.496	681.421	1243.296	-577.936	781.288	1206.428	-527.839	741.729	1153.418	-559.104
4	0.01500	637.397	567.560	-157.401	573.135	464.071	-149.150	334.090	233.141	-188.786	278.210	279.320	-259.746	313.764	88.718	-168.917	365.555	72.211	-224.960	1027.790	594.562	-479.682	1014.681	468.429	-473.683	870.012	188.073	-404.669	814.767	182.269	-342.659	996.011	84.288	-431.120	1041.469	102.343	-369.849	490.658	377.942	-157.283	518.425	513.115	-138.245	434.757	437.856	-163.999	931.637	503.845	-476.725	895.731	390.249	-449.866	818.955	727.133	-144.149	760.141	628.862	-165.739	709.746	618.786	-145.514	720.103	770.712	-106.558	666.828	669.780	-136.914	1014.465	838.139	-484.331	1075.473	713.252	-465.621	913.588	786.094	-518.039	975.465	665.583	-485.052	916.332	1008.888	-176.184	711.755	1088.887	-234.492	892.868	1039.247	-443.847	700.834	1089.375	-339.934	823.177	1573.352	-286.395	893.921	1534.205	-109.381	820.244	1558.870	-472.192	960.590	1461.754	-325.392	856.021	1318.904	-17.007	724.549	1213.981	-30.612	757.100	1245.322	51.591	914.906	1216.083	-25.036	1006.147	1190.664	-83.652	1002.599	1147.751	-55.255	664.172	1386.562	-560.239	532.648	1326.728	-489.433	558.640	1363.147	-577.094	678.159	1249.267	-577.769	778.474	1211.683	-528.346	738.674	1159.033	-559.608
